<?xml version="1.0" standalone="no"?>
<!DOCTYPE svg PUBLIC "-//W3C//DTD SVG 20010904//EN"
 "http://www.w3.org/TR/2001/REC-SVG-20010904/DTD/svg10.dtd">
<svg version="1.0" xmlns="http://www.w3.org/2000/svg"
 width="16.000000pt" height="16.000000pt" viewBox="0 0 16.000000 16.000000"
 preserveAspectRatio="xMidYMid meet">

<g transform="translate(0.000000,16.000000) scale(0.100000,-0.100000)"
fill="#000000" stroke="none">
<path d="M0 80 l0 -80 80 0 80 0 0 80 0 80 -80 0 -80 0 0 -80z m85 40 c-17 -7
-17 -9 -2 -9 9 -1 17 -8 17 -16 0 -9 -9 -15 -22 -14 -22 0 -22 1 -3 9 17 7 17
9 3 9 -10 1 -18 8 -18 16 0 9 9 15 23 14 21 0 21 -1 2 -9z"/>
</g>
</svg>
